PathFileType        4      (X/Y/Z)      C:\Users\pc\Desktop\IMUTRC\Sujet_07\Sujet_07_velo_80.trc         
DataRate	CameraRate	NumFrames	NumMarkers	Units	OrigDataRate	OrigDataStartFrame	OrigNumFrames
60.0	60.0	4	64	mm	60.0	118	936
Frame#	Time	pHipOrigin			pRightASI			pLeftASI			pRightCSI			pLeftCSI			pRightIschialTub			pLeftIschialTub			pSacrum			pL5SpinalProcess			pL3SpinalProcess			pT12SpinalProcess			pIJ			pT4SpinalProcess			pT8SpinalProcess			pPX			pC7SpinalProcess			pTopOfHead			pRightAuricularis			pLeftAuricularis			pBackOfHead			pRightAcromion			pLeftAcromion			pRightArmLatEpicondyle			pRightArmMedEpicondyle			pLeftArmLatEpicondyle			pLeftArmMedEpicondyle			pRightUlnarStyloid			pRightRadialStyloid			pRightOlecranon			pLeftUlnarStyloid			pLeftRadialStyloid			pLeftOlecranon			pRightTopOfHand			pRightPinky			pRightBallHand			pLeftTopOfHand			pLeftPinky			pLeftBallHand			pRightGreaterTrochanter			pRightKneeLatEpicondyle			pRightKneeMedEpicondyle			pRightPatella			pLeftGreaterTrochanter			pLeftKneeLatEpicondyle			pLeftKneeMedEpicondyle			pLeftPatella			pRightTibialTub			pRightLatMalleolus			pRightMedMalleolus			pLeftTibialTub			pLeftLatMalleolus			pLeftMedMalleolus			pRightHeelFoot			pRightFirstMetatarsal			pRightFifthMetatarsal			pRightPivotFoot			pRightHeelCenter			pRightToe			pLeftHeelFoot			pLeftFirstMetatarsal			pLeftFifthMetatarsal			pLeftPivotFoot			pLeftHeelCenter			pLeftToe			
		X1	Y1	Z1	X2	Y2	Z2	X3	Y3	Z3	X4	Y4	Z4	X5	Y5	Z5	X6	Y6	Z6	X7	Y7	Z7	X8	Y8	Z8	X9	Y9	Z9	X10	Y10	Z10	X11	Y11	Z11	X12	Y12	Z12	X13	Y13	Z13	X14	Y14	Z14	X15	Y15	Z15	X16	Y16	Z16	X17	Y17	Z17	X18	Y18	Z18	X19	Y19	Z19	X20	Y20	Z20	X21	Y21	Z21	X22	Y22	Z22	X23	Y23	Z23	X24	Y24	Z24	X25	Y25	Z25	X26	Y26	Z26	X27	Y27	Z27	X28	Y28	Z28	X29	Y29	Z29	X30	Y30	Z30	X31	Y31	Z31	X32	Y32	Z32	X33	Y33	Z33	X34	Y34	Z34	X35	Y35	Z35	X36	Y36	Z36	X37	Y37	Z37	X38	Y38	Z38	X39	Y39	Z39	X40	Y40	Z40	X41	Y41	Z41	X42	Y42	Z42	X43	Y43	Z43	X44	Y44	Z44	X45	Y45	Z45	X46	Y46	Z46	X47	Y47	Z47	X48	Y48	Z48	X49	Y49	Z49	X50	Y50	Z50	X51	Y51	Z51	X52	Y52	Z52	X53	Y53	Z53	X54	Y54	Z54	X55	Y55	Z55	X56	Y56	Z56	X57	Y57	Z57	X58	Y58	Z58	X59	Y59	Z59	X60	Y60	Z60	X61	Y61	Z61	X62	Y62	Z62	X63	Y63	Z63	X64	Y64	Z64	
118	1.95	0.0	1249.97763	7.653905517926474E-14	128.96298268922516	1325.49758	116.72922168663648	74.96839690621192	1313.61637	-162.0768524035485	107.10684703222235	1407.03239	91.76325910168316	62.82123901384345	1397.30465	-137.621517766405	-63.98064282496283	1219.45777	73.24340407375288	-86.17417168752182	1214.63103	-41.43539633704867	-55.818452442557735	1297.13119	8.7594356303772	19.816246785554924	1380.15115	-9.2236862479045	104.9098846668445	1466.5127	-31.26341045916576	185.22866048667692	1542.92374	-52.458610980850075	447.9434635760439	1518.04745	-110.51303783208691	356.34610677982937	1645.62195	-96.51550202202877	273.57826018722426	1607.00802	-75.53384649057016	337.2159333905904	1460.42358	-82.0939697542649	409.9290234398401	1669.1616	-107.93753609489623	680.5596806912187	1673.46854	-156.53426454004276	593.8402703177026	1642.94868	-71.3814797706972	568.8820359800117	1663.36951	-212.60834983060644	571.5454007941389	1708.3696	-132.2707730077661	442.264592661761	1606.93376	78.87785512107625	371.6462800222046	1619.18626	-287.1253994424288	479.5519283405024	1323.93817	67.90825524662043	447.12980882401587	1320.52232	12.233133538245422	388.2559267957953	1315.47281	-279.5079515500603	354.4946775951937	1311.01735	-224.7446326076242	553.6240317909552	1074.87829	47.13656864693815	603.3004300280243	1096.19021	44.26300296330965	438.11973697105543	1315.76984	43.73013576741939	441.74731206550587	1059.65549	-260.0288086044404	490.8783461237118	1076.73473	-274.87859582165015	346.8648618729752	1309.08666	-246.72748412435396	742.1892271649375	1046.66041	151.37448972004884	664.9927433578199	1020.67027	102.26058183964466	612.1139483857502	1056.53667	54.839181374287115	580.3609903172362	997.27913	-413.82746196044275	525.3445240209675	987.10585	-336.95200708240435	493.7651524536835	1035.15049	-281.9579110567725	47.93337130292677	1233.56671	171.38338552526696	328.17499664809344	890.64526	138.36775203175614	321.5921713202443	884.92743	52.93767995694206	359.18143636949395	920.64532	87.93036307246862	-20.454412179505127	1223.76471	-176.35449886614143	304.3113333839325	932.97208	-261.0920907400022	335.2338786248274	934.01168	-180.98789019657937	347.74490735518424	971.88304	-229.24182761251137	353.89581899792444	834.35803	100.05562090939576	77.61887797490175	539.1842	190.06573972098133	74.98764287509789	529.15943	125.26659260050018	367.8322433413407	894.72943	-235.22217412924115	223.32604841186276	507.40196	-259.83162250293316	240.46216110639432	502.50096	-196.69028033408782	-11.400552678099274	507.10493	164.99413647283347	100.72864249757991	384.35717	132.06811341674998	104.97326440956445	392.0057	211.0035126062727	118.34000603009983	371.80764	171.21793698785984	19.985262191469374	481.11478	165.8799504817898	180.89346711387023	303.78771	174.40702420148693	178.79022268964428	430.47112	-217.8913895950179	345.5941068294982	401.36215	-226.1105918250773	324.1972781221844	405.96612	-302.5157573831616	356.4806955696293	399.877	-269.4717166440917	217.94784704330118	428.54042	-228.98160447924803	443.7079018836349	382.87202	-294.9098697822423	
119	1.967	0.0	1249.97763	7.653905517926474E-14	126.81023163296584	1326.83422	118.23017589212522	77.12043401873059	1313.02231	-161.34885002220463	105.00383440379188	1408.072	92.43548382308367	64.14721111658783	1396.78485	-137.54192881777718	-64.89820858796124	1219.60629	72.45641459455182	-85.37723459455174	1213.96271	-42.518691872509066	-56.15455797313098	1296.90842	7.707927486034952	19.403216780667773	1380.22541	-9.547897294389529	104.54854362035948	1466.73547	-30.786069407793573	185.02045810533306	1543.22077	-51.20689387810571	448.21188330233156	1518.493	-106.67101443577091	356.49852650122983	1646.0675	-93.51216072356998	273.57754124348355	1607.37931	-73.30488124348356	337.2224939260508	1460.79487	-79.43207293500718	410.28165211964273	1669.60715	-104.38988688452035	681.1198014688786	1673.24577	-152.00936218532456	594.1703366161613	1643.0972	-66.90365136949397	569.5535417576715	1663.36951	-208.2763719550894	572.1525955253138	1708.51811	-127.97592513224906	441.0512508061032	1606.71099	82.46458486202538	373.39185632555063	1619.40903	-284.0597062883122	478.9107943869874	1323.93817	69.16725182856584	446.904374349702	1320.96787	13.217657501534713	388.9580020379948	1315.69558	-277.90218154028605	355.1967478373932	1311.16587	-223.13885393759588	553.5941899304103	1075.24958	47.63381626559434	603.2805371209943	1096.63576	44.59449848899573	437.6814851105105	1315.91835	44.93477025639475	441.8089499774229	1059.72975	-259.3930085995533	490.9771140356289	1076.80899	-274.30710686324807	347.5569795014057	1309.30943	-244.95596702160964	742.3549705976535	1046.95744	151.3844336735638	665.1213654507901	1021.04155	102.3348418396447	612.1311768184663	1056.90796	55.10636085348819	580.4597668894073	997.27913	-413.2559680020407	525.4432869328846	987.1801	-336.3805094637482	493.8639290258546	1035.15049	-281.3864170983704	48.09911839589685	1235.94295	171.39334313903595	344.77027710367673	907.27896	136.80216311683114	337.7173952036564	900.96707	51.44367290744913	373.8348376244756	938.68991	86.01532759514681	-19.72711508164791	1222.13105	-176.27757439182753	289.5849173760374	913.36808	-255.18919000093234	320.12889813773126	913.88788	-174.8748365455924	334.7972879292346	950.34835	-223.59811292970085	368.32378077859215	850.54618	99.12511805561722	84.14925663296586	563.98623	192.12115209255083	81.17658205396091	553.36739	127.4678554977558	354.23158681753387	876.2393	-229.78400601371453	221.10170682991733	485.12469	-258.8007298696156	238.33924691067986	480.07517	-195.68656508700118	-5.721469545721277	533.54062	167.92997594714737	103.22407328012693	408.11959	134.28056051460723	108.27024728996867	415.76812	213.1642707457278	120.8082557661618	395.19877	173.32894303923203	25.112744272475183	506.88216	168.58307100258875	181.75133683527076	325.69369	176.18849025774628	176.22443296824378	408.34236	-216.71465143601424	342.9686247267538	378.41656	-223.93936342876123	321.97754654512613	382.57499	-300.45324951253167	354.085267946086	376.56012	-267.2534142942608	215.50072180110172	406.11464	-227.56485922727427	441.3469347857777	359.03534	-292.15719481375515	
120	1.983	0.0	1249.97763	7.653905517926474E-14	124.38033848373642	1328.0966	119.91411428355408	79.65833741015946	1312.35399	-160.3980676408608	102.7251257288764	1409.1116	93.26350302368527	65.89617083798835	1396.19078	-137.3038759156344	-66.0730012163917	1219.7548	71.52091511535077	-84.46891616183572	1213.2944	-43.794925547424555	-56.50790059667429	1296.7599	6.389234862491642	19.091619162011614	1380.29967	-9.899294387359593	104.38012705307551	1466.95825	-30.197343356421396	184.93092020319028	1543.5178	-49.7151696823913	448.6904646007904	1518.79003	-102.45042156025384	356.86109913454743	1646.43879	-90.13025494591012	273.695500439198	1607.75059	-70.83591256368094	337.43922969393634	1461.16616	-76.39161029680241	410.74299632513146	1669.97844	-100.43647848820432	681.8629027722245	1672.87448	-147.20733139789047	594.7848194867912	1643.17145	-62.17586692180582	570.3337680610175	1663.29525	-203.53864355388617	573.0070904889137	1708.51811	-123.36681382401592	439.91943842964656	1606.26544	86.35564140268363	375.4762026337837	1619.40903	-280.54117999474056	478.28688386618853	1323.78966	70.69343654996638	446.6961583081041	1321.33916	14.469378264533102	389.6129896664253	1315.8441	-276.0663533910567	356.0446599450247	1311.24013	-221.19164078836644	553.4629033631263	1075.39809	48.15823127048146	603.0206371209943	1096.85853	45.044658493882885	437.2604516826816	1315.99261	46.406601545079205	441.75920654959407	1059.65549	-258.56427045521104	490.9645006078	1076.58621	-273.5426797653908	348.27627817632117	1309.45795	-243.0830088723802	742.4564066441387	1047.0317	151.35726128733288	665.111407837021	1021.19007	102.50058893261479	611.9727128649513	1057.13073	55.52934847214437	580.5658229407795	996.9821	-412.2515424714673	525.4207295515407	986.95733	-335.4503389331749	493.81418559802574	1035.07623	-280.55767895402806	47.69336787021075	1238.24494	171.50206366472204	360.3611283684327	924.95226	135.34261659302427	353.20680042192737	918.26908	50.01131609038134	387.5381581213461	957.69985	84.40922026216724	-18.79694455107466	1220.57164	-176.25501701048367	272.99549583268197	893.76408	-248.73272901966297	302.93084897571964	893.54131	-168.25530160592092	320.0138490143096	928.51662	-217.29940561845982	382.46732098708884	867.99671	97.94466781560773	92.68848635217645	588.04568	193.96445236137603	89.41150229397044	576.9813	129.39269524578205	338.7579808047517	857.08084	-223.62653422327253	215.7002734336013	462.84742	-255.83133279349693	233.17782560733392	457.72365	-192.83584115033764	2.4192977872583015	559.01097	170.31493331382975	109.00992640761778	431.7335	135.99186893266176	114.65478042234666	439.30777	214.87823497784223	126.66836889365266	418.51565	174.91162936431655	32.76621794031358	531.75844	170.7724257555021	186.4068118135322	347.97096	177.33291106203185	170.32309613921174	386.65915	-213.1764162155533	336.7802068512367	355.2482	-220.0524092498982	315.8905697160941	359.03534	-296.5934763801537	347.96116111705396	353.02048	-263.32933011539774	209.53508758583865	384.06014	-224.06375766706742	435.11144295674563	334.45608	-288.040186155691	
121	2.0	0.0	1249.97763	7.653905517926474E-14	122.08902138099205	1329.35897	121.50655192175884	82.09478609484925	1311.61142	-159.42010055277788	100.5578070539609	1410.15121	93.89858908483174	67.68225555938888	1395.52247	-137.13012539972263	-67.1191717518521	1219.97758	70.65967563614971	-83.57053802238063	1212.70034	-44.90540212936998	-56.732621127247526	1296.53713	5.144802238948334	18.817155203609495	1380.37392	-10.314988866560652	104.18453809956054	1467.10676	-29.71005335153424	184.91564230104748	1543.74057	-48.352067579646935	449.2161248527642	1519.0128	-98.45989182419184	357.2979354281191	1646.66156	-86.87695760096629	273.9891470211434	1607.97337	-68.52274336307931	337.63872336885186	1461.38893	-73.61832347754468	411.31573053062016	1670.20121	-96.67600323134339	682.6530730290855	1672.42894	-142.63534642940328	595.344940264451	1643.0972	-57.650964567087655	571.0967709316474	1663.07248	-199.06810329213815	573.8715207457747	1708.44386	-118.92345094849885	438.89901239293584	1605.74564	90.0537511436328	377.67194760227085	1619.40903	-277.215581840624	477.86585543835963	1323.64114	72.16525917839681	446.61656935947633	1321.56193	15.795350367277475	390.4337293878258	1315.91835	-274.22057628831226	356.92971071291026	1311.24013	-219.30873368562212	553.1287433631263	1075.39809	48.7370133683387	602.7879095072252	1096.93279	45.596254545255086	437.0051666875688	1315.99261	47.88836812702467	441.67233812176516	1059.43272	-257.67122992463777	490.91475717997116	1076.28918	-272.71394162104855	349.1241989442068	1309.5322	-241.1357907231508	742.3821516441387	1046.80893	151.48587472004888	664.8614654507901	1021.04155	102.78500184453185	611.6856318184663	1057.13073	55.87806743054649	580.4517684664656	996.75933	-411.45993432712515	525.3066750772268	986.73456	-334.6587307888327	493.7273085099428	1034.7792	-279.6646434234549	47.223306298039624	1240.54692	171.57365419040812	374.5616914839593	942.84833	133.76635978084366	367.370238537454	935.86812	48.499361664431675	399.91551517572617	976.93256	82.72352898055983	-17.90390402050143	1219.16074	-176.1681485826548	255.96585457770027	875.94227	-242.70192513136368	285.25545376233583	875.05118	-161.99709905248045	304.6145030015274	908.46708	-211.27055592098782	395.6535059582732	885.74427	96.6402054875153	102.36344182949824	610.32295	195.17727791368785	98.78214329209118	598.96154	130.68706893754893	322.6784153078812	839.33329	-217.90464981906138	207.58720845045272	442.94639	-252.02663203757564	225.36907010338638	437.74836	-189.1126798736174	11.908608264580124	581.51101	171.84930543831265	117.79183269411232	453.86225	137.11782105714468	123.76817723452729	461.36227	216.02408866960914	135.55171122663222	440.49589	176.01040910256847	42.12690632466533	554.18423	172.23253787998502	194.9686075743407	369.80269	178.24604580028378	161.38590801660803	367.57496	-208.3898523104026	327.2814737237459	333.71351	-215.33282086554647	306.2260844956332	336.83233	-291.8838369493169	338.2595545568471	330.74321	-258.5553746380759	200.49646341674995	364.30763	-219.2500213756857	425.0783458708527	310.69366	-283.28613224565316	
